<svg xmlns="http://www.w3.org/2000/svg" viewBox="0 0 1200 880">
<style>
  text { font-family: "Helvetica Neue", Helvetica, Arial, "PingFang SC", "Microsoft YaHei", sans-serif; }
  .title { font-size: 18px; font-weight: 600; fill: #111827; }
  .subtitle { font-size: 11px; fill: #6b7280; }
  .label { font-size: 13px; font-weight: 500; fill: #111827; }
  .sublabel { font-size: 10.5px; fill: #6b7280; }
  .layer-label { font-size: 12px; font-weight: 600; fill: #6b7280; letter-spacing: 1px; }
  .legend-text { font-size: 11px; fill: #6b7280; }
</style>
<defs>
  <marker id="arrow-blue" markerWidth="10" markerHeight="7" refX="9" refY="3.5" orient="auto"><polygon points="0 0, 10 3.5, 0 7" fill="#2563eb"/></marker>
  <marker id="arrow-orange" markerWidth="10" markerHeight="7" refX="9" refY="3.5" orient="auto"><polygon points="0 0, 10 3.5, 0 7" fill="#ea580c"/></marker>
  <marker id="arrow-green" markerWidth="10" markerHeight="7" refX="9" refY="3.5" orient="auto"><polygon points="0 0, 10 3.5, 0 7" fill="#059669"/></marker>
  <marker id="arrow-purple" markerWidth="10" markerHeight="7" refX="9" refY="3.5" orient="auto"><polygon points="0 0, 10 3.5, 0 7" fill="#7c3aed"/></marker>
  <marker id="arrow-gray" markerWidth="10" markerHeight="7" refX="9" refY="3.5" orient="auto"><polygon points="0 0, 10 3.5, 0 7" fill="#9ca3af"/></marker>
  <filter id="shadow" x="-4%" y="-4%" width="108%" height="112%"><feDropShadow dx="0" dy="1" stdDeviation="2" flood-opacity="0.08"/></filter>
</defs>
<rect width="1200" height="880" fill="#ffffff"/>
<text x="600" y="32" text-anchor="middle" class="title">Super Agent — 系统技术架构</text>
<text x="600" y="48" text-anchor="middle" class="subtitle">企业级混合 AI Agent 引擎 · FastAPI + PydanticAI + E2B Sandbox + A2UI</text>
<rect x="30" y="72" width="1140" height="68" rx="10" fill="#f9fafb" stroke="#e5e7eb" stroke-width="1" stroke-dasharray="6,3"/>
<text x="50" y="88" class="layer-label">CLIENT</text>
<rect x="120" y="84" width="120" height="44" rx="8" fill="#eff6ff" stroke="#bfdbfe" stroke-width="1.5" filter="url(#shadow)"/>
<text x="180" y="104" text-anchor="middle" class="label">用户</text>
<text x="180" y="118" text-anchor="middle" class="sublabel">Web / CLI</text>
<rect x="440" y="84" width="160" height="44" rx="8" fill="#eff6ff" stroke="#bfdbfe" stroke-width="1.5" filter="url(#shadow)"/>
<text x="520" y="104" text-anchor="middle" class="label">React SPA</text>
<text x="520" y="118" text-anchor="middle" class="sublabel">TypeScript + Vite :5173</text>
<rect x="820" y="84" width="120" height="44" rx="8" fill="#eff6ff" stroke="#bfdbfe" stroke-width="1.5" filter="url(#shadow)"/>
<text x="880" y="104" text-anchor="middle" class="label">CLI</text>
<text x="880" y="118" text-anchor="middle" class="sublabel">cli.py</text>
<path d="M 240,106 L 430,106" stroke="#2563eb" stroke-width="1.5" fill="none" marker-end="url(#arrow-blue)"/>
<path d="M 240,106 L 810,106" stroke="#2563eb" stroke-width="1.5" fill="none" marker-end="url(#arrow-blue)" stroke-dasharray="5,3"/>
<rect x="30" y="160" width="1140" height="68" rx="10" fill="#fefce8" stroke="#fde68a" stroke-width="1" stroke-dasharray="6,3"/>
<text x="50" y="176" class="layer-label">GATEWAY</text>
<rect x="90" y="172" width="140" height="44" rx="8" fill="#ffffff" stroke="#d1d5db" stroke-width="1.5" filter="url(#shadow)"/>
<text x="160" y="192" text-anchor="middle" class="label">REST API</text>
<text x="160" y="206" text-anchor="middle" class="sublabel">POST /query</text>
<rect x="330" y="172" width="140" height="44" rx="8" fill="#ffffff" stroke="#d1d5db" stroke-width="1.5" filter="url(#shadow)"/>
<text x="400" y="192" text-anchor="middle" class="label">WebSocket</text>
<text x="400" y="206" text-anchor="middle" class="sublabel">双向通信</text>
<rect x="570" y="172" width="140" height="44" rx="8" fill="#ffffff" stroke="#d1d5db" stroke-width="1.5" filter="url(#shadow)"/>
<text x="640" y="192" text-anchor="middle" class="label">SSE Streaming</text>
<text x="640" y="206" text-anchor="middle" class="sublabel">事件推送 + 断点续传</text>
<rect x="830" y="172" width="140" height="44" rx="8" fill="#ffffff" stroke="#d1d5db" stroke-width="1.5" filter="url(#shadow)"/>
<text x="900" y="192" text-anchor="middle" class="label">Session Manager</text>
<text x="900" y="206" text-anchor="middle" class="sublabel">会话状态机</text>
<path d="M 520,128 L 520,172" stroke="#2563eb" stroke-width="1.5" fill="none" marker-end="url(#arrow-blue)"/>
<path d="M 880,128 L 880,184 L 710,184" stroke="#2563eb" stroke-width="1.5" fill="none" marker-end="url(#arrow-blue)" stroke-dasharray="5,3"/>
<rect x="30" y="248" width="1140" height="68" rx="10" fill="#fff7ed" stroke="#fed7aa" stroke-width="1" stroke-dasharray="6,3"/>
<text x="50" y="264" class="layer-label">ORCHESTRATOR</text>
<rect x="100" y="260" width="160" height="44" rx="8" fill="#ffffff" stroke="#d1d5db" stroke-width="1.5" filter="url(#shadow)"/>
<text x="180" y="280" text-anchor="middle" class="label">Reasoning Engine</text>
<text x="180" y="294" text-anchor="middle" class="sublabel">意图理解 + 复杂度评估</text>
<rect x="340" y="260" width="160" height="44" rx="8" fill="#ffffff" stroke="#d1d5db" stroke-width="1.5" filter="url(#shadow)"/>
<text x="420" y="280" text-anchor="middle" class="label">Agent Factory</text>
<text x="420" y="294" text-anchor="middle" class="sublabel">PydanticAI Agent 创建</text>
<rect x="580" y="260" width="160" height="44" rx="8" fill="#ffffff" stroke="#d1d5db" stroke-width="1.5" filter="url(#shadow)"/>
<text x="660" y="280" text-anchor="middle" class="label">Context Builder</text>
<text x="660" y="294" text-anchor="middle" class="sublabel">12段 System Prompt</text>
<rect x="840" y="260" width="160" height="44" rx="8" fill="#ffffff" stroke="#d1d5db" stroke-width="1.5" filter="url(#shadow)"/>
<text x="920" y="280" text-anchor="middle" class="label">Hooks / Events</text>
<text x="920" y="294" text-anchor="middle" class="sublabel">A2UI 事件发布</text>
<path d="M 160,216 L 160,272 L 100,272" stroke="#ea580c" stroke-width="1.5" fill="none" marker-end="url(#arrow-orange)"/>
<text x="180" y="324" text-anchor="middle" class="sublabel" fill="#ea580c">DIRECT | AUTO | PLAN_AND_EXECUTE | SUB_AGENT</text>
<rect x="30" y="340" width="840" height="68" rx="10" fill="#f0fdf4" stroke="#bbf7d0" stroke-width="1" stroke-dasharray="6,3"/>
<text x="50" y="356" class="layer-label">CAPABILITIES</text>
<rect x="60" y="352" width="160" height="44" rx="8" fill="#ffffff" stroke="#d1d5db" stroke-width="1.5" filter="url(#shadow)"/>
<text x="140" y="372" text-anchor="middle" class="label">Base Tools (10)</text>
<text x="140" y="386" text-anchor="middle" class="sublabel">RAG/DB/API/Sandbox...</text>
<rect x="260" y="352" width="160" height="44" rx="8" fill="#ffffff" stroke="#d1d5db" stroke-width="1.5" filter="url(#shadow)"/>
<text x="340" y="372" text-anchor="middle" class="label">Skill Registry</text>
<text x="340" y="386" text-anchor="middle" class="sublabel">三阶段渐进加载</text>
<rect x="460" y="352" width="160" height="44" rx="8" fill="#ffffff" stroke="#d1d5db" stroke-width="1.5" filter="url(#shadow)"/>
<text x="540" y="372" text-anchor="middle" class="label">MCP Tools</text>
<text x="540" y="386" text-anchor="middle" class="sublabel">延迟加载外部工具</text>
<rect x="660" y="352" width="160" height="44" rx="8" fill="#ffffff" stroke="#d1d5db" stroke-width="1.5" filter="url(#shadow)"/>
<text x="740" y="372" text-anchor="middle" class="label">Sub-Agents</text>
<text x="740" y="386" text-anchor="middle" class="sublabel">researcher/analyst/writer</text>
<rect x="890" y="340" width="280" height="68" rx="10" fill="#faf5ff" stroke="#e9d5ff" stroke-width="1" stroke-dasharray="6,3"/>
<text x="910" y="356" class="layer-label">MEMORY</text>
<rect x="910" y="352" width="120" height="44" rx="8" fill="#ffffff" stroke="#d1d5db" stroke-width="1.5" filter="url(#shadow)"/>
<text x="970" y="372" text-anchor="middle" class="label">Retriever</text>
<text x="970" y="386" text-anchor="middle" class="sublabel">200ms 超时降级</text>
<rect x="1040" y="352" width="120" height="44" rx="8" fill="#ffffff" stroke="#d1d5db" stroke-width="1.5" filter="url(#shadow)"/>
<text x="1100" y="372" text-anchor="middle" class="label">Updater</text>
<text x="1100" y="386" text-anchor="middle" class="sublabel">LLM 事实抽取</text>
<path d="M 420,304 L 420,352" stroke="#ea580c" stroke-width="1.5" fill="none" marker-end="url(#arrow-orange)"/>
<rect x="30" y="430" width="1140" height="68" rx="10" fill="#fef2f2" stroke="#fecaca" stroke-width="1" stroke-dasharray="6,3"/>
<text x="50" y="446" class="layer-label">WORKERS</text>
<rect x="70" y="442" width="140" height="44" rx="8" fill="#ffffff" stroke="#d1d5db" stroke-width="1.5" filter="url(#shadow)"/>
<text x="140" y="462" text-anchor="middle" class="label">RAG Worker</text>
<text x="140" y="476" text-anchor="middle" class="sublabel">Milvus 向量检索</text>
<rect x="250" y="442" width="140" height="44" rx="8" fill="#ffffff" stroke="#d1d5db" stroke-width="1.5" filter="url(#shadow)"/>
<text x="320" y="462" text-anchor="middle" class="label">DB Worker</text>
<text x="320" y="476" text-anchor="middle" class="sublabel">只读 SQL (安全过滤)</text>
<rect x="430" y="442" width="140" height="44" rx="8" fill="#ffffff" stroke="#d1d5db" stroke-width="1.5" filter="url(#shadow)"/>
<text x="500" y="462" text-anchor="middle" class="label">API Worker</text>
<text x="500" y="476" text-anchor="middle" class="sublabel">HTTP 微服务调用</text>
<rect x="610" y="442" width="140" height="44" rx="8" fill="#ffffff" stroke="#d1d5db" stroke-width="1.5" filter="url(#shadow)"/>
<text x="680" y="462" text-anchor="middle" class="label">Web Search</text>
<text x="680" y="476" text-anchor="middle" class="sublabel">百度 AI 搜索</text>
<rect x="825" y="442" width="150" height="44" rx="8" fill="#ffffff" stroke="#d1d5db" stroke-width="1.5" filter="url(#shadow)"/>
<text x="900" y="462" text-anchor="middle" class="label">Sandbox Worker</text>
<text x="900" y="476" text-anchor="middle" class="sublabel">Pi Agent 编排</text>
<path d="M 140,396 L 140,442" stroke="#ea580c" stroke-width="1.5" fill="none" marker-end="url(#arrow-orange)"/>
<rect x="30" y="518" width="560" height="50" rx="10" fill="#f9fafb" stroke="#e5e7eb" stroke-width="1" stroke-dasharray="4,2"/>
<text x="50" y="532" class="layer-label">CROSS-CUTTING</text>
<rect x="60" y="528" width="140" height="30" rx="6" fill="#f0fdf4" stroke="#bbf7d0" stroke-width="1.2"/>
<text x="130" y="548" text-anchor="middle" class="sublabel">Langfuse Tracer</text>
<rect x="220" y="528" width="140" height="30" rx="6" fill="#fef2f2" stroke="#fecaca" stroke-width="1.2"/>
<text x="290" y="548" text-anchor="middle" class="sublabel">Security Guard</text>
<rect x="390" y="528" width="140" height="30" rx="6" fill="#fefce8" stroke="#fde68a" stroke-width="1.2"/>
<text x="460" y="548" text-anchor="middle" class="sublabel">Billing Tracker</text>
<rect x="610" y="518" width="560" height="50" rx="10" fill="#f9fafb" stroke="#e5e7eb" stroke-width="1" stroke-dasharray="4,2"/>
<text x="630" y="532" class="layer-label">MIDDLEWARE PIPELINE</text>
<rect x="665" y="528" width="110" height="30" rx="6" fill="#eff6ff" stroke="#bfdbfe" stroke-width="1.2"/>
<text x="720" y="548" text-anchor="middle" class="sublabel">Token Usage</text>
<rect x="785" y="528" width="110" height="30" rx="6" fill="#eff6ff" stroke="#bfdbfe" stroke-width="1.2"/>
<text x="840" y="548" text-anchor="middle" class="sublabel">Loop Detection</text>
<rect x="905" y="528" width="110" height="30" rx="6" fill="#eff6ff" stroke="#bfdbfe" stroke-width="1.2"/>
<text x="960" y="548" text-anchor="middle" class="sublabel">Summarization</text>
<rect x="1025" y="528" width="110" height="30" rx="6" fill="#eff6ff" stroke="#bfdbfe" stroke-width="1.2"/>
<text x="1080" y="548" text-anchor="middle" class="sublabel">Memory MW</text>
<rect x="30" y="590" width="1140" height="100" rx="10" fill="#f8fafc" stroke="#e2e8f0" stroke-width="1"/>
<text x="50" y="606" class="layer-label">INFRASTRUCTURE &amp; EXTERNAL SERVICES</text>
<rect x="35" y="614" width="130" height="60" rx="8" fill="#fff7ed" stroke="#fed7aa" stroke-width="1.5" filter="url(#shadow)"/>
<text x="100" y="640" text-anchor="middle" class="label">LLM Providers</text>
<text x="100" y="654" text-anchor="middle" class="sublabel">Claude/GPT/Groq</text>
<text x="100" y="666" text-anchor="middle" style="font-size:9px;fill:#dc2626;">必需</text>
<rect x="195" y="614" width="130" height="60" rx="8" fill="#fef2f2" stroke="#fecaca" stroke-width="1.5" filter="url(#shadow)"/>
<text x="260" y="640" text-anchor="middle" class="label">Redis</text>
<text x="260" y="654" text-anchor="middle" class="sublabel">Stream/Hash/SortedSet</text>
<text x="260" y="666" text-anchor="middle" style="font-size:9px;fill:#dc2626;">必需</text>
<rect x="355" y="614" width="130" height="60" rx="8" fill="#f0fdf4" stroke="#bbf7d0" stroke-width="1.5" filter="url(#shadow)"/>
<text x="420" y="640" text-anchor="middle" class="label">E2B Sandbox</text>
<text x="420" y="654" text-anchor="middle" class="sublabel">Pi Agent 隔离执行</text>
<text x="420" y="666" text-anchor="middle" style="font-size:9px;fill:#dc2626;">必需</text>
<rect x="515" y="614" width="130" height="60" rx="8" fill="#faf5ff" stroke="#e9d5ff" stroke-width="1.5" filter="url(#shadow)"/>
<text x="580" y="640" text-anchor="middle" class="label">Milvus</text>
<text x="580" y="654" text-anchor="middle" class="sublabel">向量数据库</text>
<rect x="675" y="614" width="130" height="60" rx="8" fill="#f0fdf4" stroke="#bbf7d0" stroke-width="1.5" filter="url(#shadow)"/>
<text x="740" y="640" text-anchor="middle" class="label">Langfuse</text>
<text x="740" y="654" text-anchor="middle" class="sublabel">调用链追踪</text>
<rect x="835" y="614" width="130" height="60" rx="8" fill="#eff6ff" stroke="#bfdbfe" stroke-width="1.5" filter="url(#shadow)"/>
<text x="900" y="640" text-anchor="middle" class="label">PostgreSQL</text>
<text x="900" y="654" text-anchor="middle" class="sublabel">业务数据</text>
<rect x="995" y="614" width="130" height="60" rx="8" fill="#fefce8" stroke="#fde68a" stroke-width="1.5" filter="url(#shadow)"/>
<text x="1060" y="640" text-anchor="middle" class="label">MCP Server</text>
<text x="1060" y="654" text-anchor="middle" class="sublabel">外部工具协议</text>
<path d="M 140,486 L 140,582 L 580,582 L 580,614" stroke="#059669" stroke-width="1.5" fill="none" marker-end="url(#arrow-green)"/>
<path d="M 320,486 L 320,576 L 900,576 L 900,614" stroke="#059669" stroke-width="1.5" fill="none" marker-end="url(#arrow-green)"/>
<path d="M 900,486 L 900,518 L 420,518 L 420,614" stroke="#7c3aed" stroke-width="1.5" fill="none" marker-end="url(#arrow-purple)"/>
<path d="M 180,304 L 180,588 L 100,588 L 100,614" stroke="#2563eb" stroke-width="2" fill="none" marker-end="url(#arrow-blue)"/>
<path d="M 640,216 L 640,570 L 260,570 L 260,614" stroke="#ea580c" stroke-width="1.5" fill="none" marker-end="url(#arrow-orange)"/>
<path d="M 970,396 L 970,564 L 260,564 L 260,614" stroke="#059669" stroke-width="1.5" fill="none" marker-end="url(#arrow-green)" stroke-dasharray="5,3"/>
<path d="M 540,396 L 540,582 L 1060,582 L 1060,614" stroke="#9ca3af" stroke-width="1.5" fill="none" marker-end="url(#arrow-gray)" stroke-dasharray="5,3"/>
<rect x="1020" y="184" width="130" height="22" rx="4" fill="#fef3c7" stroke="#fbbf24" stroke-width="1"/>
<text x="1085" y="199" text-anchor="middle" style="font-size:11px;font-weight:600;fill:#92400e;">A2UI Protocol</text>
<path d="M 1020,194 L 710,194" stroke="#fbbf24" stroke-width="1" fill="none" stroke-dasharray="3,2"/>
<rect x="30" y="720" width="1140" height="50" rx="8" fill="#f9fafb" stroke="#e5e7eb" stroke-width="1"/>
<text x="50" y="738" class="layer-label">LEGEND</text>
<line x1="50" y1="756" x2="85" y2="756" stroke="#2563eb" stroke-width="1.5" marker-end="url(#arrow-blue)"/>
<text x="92" y="760" class="legend-text">LLM 推理请求</text>
<line x1="230" y1="756" x2="265" y2="756" stroke="#ea580c" stroke-width="1.5" marker-end="url(#arrow-orange)"/>
<text x="272" y="760" class="legend-text">控制流 / 事件流</text>
<line x1="420" y1="756" x2="455" y2="756" stroke="#059669" stroke-width="1.5" marker-end="url(#arrow-green)"/>
<text x="462" y="760" class="legend-text">数据读写</text>
<line x1="580" y1="756" x2="615" y2="756" stroke="#7c3aed" stroke-width="1.5" marker-end="url(#arrow-purple)"/>
<text x="622" y="760" class="legend-text">沙箱执行</text>
<line x1="740" y1="756" x2="775" y2="756" stroke="#9ca3af" stroke-width="1.5" marker-end="url(#arrow-gray)" stroke-dasharray="5,3"/>
<text x="782" y="760" class="legend-text">延迟 / 异步</text>
<line x1="900" y1="756" x2="935" y2="756" stroke="#059669" stroke-width="1.5" marker-end="url(#arrow-green)" stroke-dasharray="5,3"/>
<text x="942" y="760" class="legend-text">记忆读写</text>
<rect x="30" y="785" width="1140" height="80" rx="10" fill="#eff6ff" stroke="#bfdbfe" stroke-width="1"/>
<text x="600" y="805" text-anchor="middle" style="font-size:13px;font-weight:600;fill:#1e40af;">请求生命周期</text>
<rect x="30" y="817" width="100" height="30" rx="6" fill="#ffffff" stroke="#93c5fd" stroke-width="1.2"/>
<text x="80" y="837" text-anchor="middle" style="font-size:11px;fill:#1e40af;">User Input</text>
<path d="M 130,832 L 178,832" stroke="#2563eb" stroke-width="1.2" fill="none" marker-end="url(#arrow-blue)"/>
<rect x="180" y="817" width="100" height="30" rx="6" fill="#ffffff" stroke="#93c5fd" stroke-width="1.2"/>
<text x="230" y="837" text-anchor="middle" style="font-size:11px;fill:#1e40af;">REST API</text>
<path d="M 280,832 L 328,832" stroke="#2563eb" stroke-width="1.2" fill="none" marker-end="url(#arrow-blue)"/>
<rect x="330" y="817" width="100" height="30" rx="6" fill="#ffffff" stroke="#93c5fd" stroke-width="1.2"/>
<text x="380" y="837" text-anchor="middle" style="font-size:11px;fill:#1e40af;">Reasoning</text>
<path d="M 430,832 L 478,832" stroke="#2563eb" stroke-width="1.2" fill="none" marker-end="url(#arrow-blue)"/>
<rect x="480" y="817" width="100" height="30" rx="6" fill="#ffffff" stroke="#93c5fd" stroke-width="1.2"/>
<text x="530" y="837" text-anchor="middle" style="font-size:11px;fill:#1e40af;">Agent.run()</text>
<path d="M 580,832 L 628,832" stroke="#2563eb" stroke-width="1.2" fill="none" marker-end="url(#arrow-blue)"/>
<rect x="630" y="817" width="100" height="30" rx="6" fill="#ffffff" stroke="#93c5fd" stroke-width="1.2"/>
<text x="680" y="837" text-anchor="middle" style="font-size:11px;fill:#1e40af;">Tool Calls</text>
<path d="M 730,832 L 778,832" stroke="#2563eb" stroke-width="1.2" fill="none" marker-end="url(#arrow-blue)"/>
<rect x="780" y="817" width="100" height="30" rx="6" fill="#ffffff" stroke="#93c5fd" stroke-width="1.2"/>
<text x="830" y="837" text-anchor="middle" style="font-size:11px;fill:#1e40af;">Workers</text>
<path d="M 880,832 L 928,832" stroke="#2563eb" stroke-width="1.2" fill="none" marker-end="url(#arrow-blue)"/>
<rect x="930" y="817" width="100" height="30" rx="6" fill="#ffffff" stroke="#93c5fd" stroke-width="1.2"/>
<text x="980" y="837" text-anchor="middle" style="font-size:11px;fill:#1e40af;">Redis Stream</text>
<path d="M 1030,832 L 1048,832" stroke="#2563eb" stroke-width="1.2" fill="none" marker-end="url(#arrow-blue)"/>
<rect x="1050" y="817" width="100" height="30" rx="6" fill="#ffffff" stroke="#93c5fd" stroke-width="1.2"/>
<text x="1100" y="837" text-anchor="middle" style="font-size:11px;fill:#1e40af;">SSE → UI</text>
</svg>